<?xml version="1.0" encoding="utf-8"?>
<!-- Generator: Adobe Illustrator 26.5.0, SVG Export Plug-In . SVG Version: 6.00 Build 0)  -->
<svg version="1.1" id="Warstwa_1" xmlns="http://www.w3.org/2000/svg" xmlns:xlink="http://www.w3.org/1999/xlink" x="0px" y="0px"
	 viewBox="0 0 28.3 28.3" style="enable-background:new 0 0 28.3 28.3;" xml:space="preserve">
<style type="text/css">
	.st0{fill:#4F46E5;}
</style>
<g>
	<path class="st0" d="M21.7,3.6H6.7C5,3.6,3.6,5,3.6,6.7v14.9c0,1.8,1.4,3.1,3.1,3.1h14.9c1.8,0,3.1-1.4,3.1-3.1V6.7
		C24.8,5,23.4,3.6,21.7,3.6z M5.5,21.7V6.7c0-0.6,0.6-1.2,1.2-1.2h14.9c0.6,0,1.2,0.6,1.2,1.2v8.1l-1.3-1.4c-1.1-1.2-3.1-1.2-4.2,0
		l-8.8,9.4H6.7C6.1,22.9,5.5,22.3,5.5,21.7z M21.7,22.9H11.4l7.4-8c0.4-0.4,0.8-0.4,1.2,0l2.9,3.1v3.8
		C22.9,22.3,22.3,22.9,21.7,22.9z"/>
	<path class="st0" d="M9.2,12.1l2.1,1.2c0,0.1-0.1,0.2-0.1,0.5c0,1,0.8,1.8,1.8,1.8s1.8-0.7,1.8-1.8S14.1,12,13.1,12
		c-0.5,0-0.8,0.1-1.1,0.4l-2.2-1.3c0-0.1,0-0.1,0-0.2c0-0.1,0-0.1,0-0.2L12,9.4c0.4,0.2,0.6,0.4,1.1,0.4c1,0,1.8-0.7,1.8-1.8
		c0-1-0.8-1.8-1.8-1.8s-1.7,1-1.7,1.9c0,0.1,0,0.4,0.1,0.5l-2.3,1C9,9.4,8.6,9.1,8,9.1c-0.9,0-1.7,0.7-1.7,1.8s0.8,1.8,1.8,1.8
		C8.6,12.4,9,12.4,9.2,12.1z"/>
</g>
</svg>
