<?xml version="1.0" encoding="utf-8"?>
<!-- Generator: Adobe Illustrator 25.4.1, SVG Export Plug-In . SVG Version: 6.00 Build 0)  -->
<svg version="1.1" id="Warstwa_1" xmlns="http://www.w3.org/2000/svg" xmlns:xlink="http://www.w3.org/1999/xlink" x="0px" y="0px"
	 viewBox="0 0 96.4 21.1" style="enable-background:new 0 0 96.4 21.1;" xml:space="preserve">
<style type="text/css">
	.st0{fill:#4F46E5;}
</style>
<g>
	<path class="st0" d="M18.1,0h-15C1.4,0,0,1.4,0,3.1V18c0,1.8,1.4,3.1,3.1,3.1H18c1.8,0,3.1-1.4,3.1-3.1V3.1C21.2,1.4,19.8,0,18.1,0
		z M1.9,18.1v-15c0-0.6,0.6-1.2,1.2-1.2H18c0.6,0,1.2,0.6,1.2,1.2v8.1l-1.3-1.4c-1.1-1.2-3.1-1.2-4.2,0l-8.8,9.4H3.1
		C2.5,19.3,1.9,18.7,1.9,18.1z M18.1,19.3H7.8l7.4-8c0.4-0.4,0.8-0.4,1.2,0l2.9,3.1v3.8C19.3,18.7,18.7,19.3,18.1,19.3z"/>
	<path class="st0" d="M5.6,8.5l2.1,1.2c0,0.1-0.1,0.2-0.1,0.5c0,1,0.8,1.8,1.8,1.8s1.8-0.7,1.8-1.8s-0.7-1.8-1.7-1.8
		C9,8.4,8.7,8.5,8.4,8.8L6.2,7.5c0-0.1,0-0.1,0-0.2c0-0.1,0-0.1,0-0.2l2.2-1.3C8.8,6,9,6.2,9.5,6.2c1,0,1.8-0.7,1.8-1.8
		c0-1-0.8-1.8-1.8-1.8s-1.7,1-1.7,1.9c0,0.1,0,0.4,0.1,0.5L5.6,6C5.4,5.8,5,5.5,4.4,5.5c-0.9,0-1.7,0.7-1.7,1.8s0.8,1.8,1.8,1.8
		C5,8.8,5.4,8.8,5.6,8.5z"/>
</g>
<g>
	<path d="M26.1,16V5.5h5c0.8,0,1.4,0.1,2,0.4c0.6,0.3,1,0.7,1.3,1.1c0.3,0.5,0.5,1.1,0.5,1.7c0,0.7-0.2,1.2-0.5,1.7
		c-0.3,0.5-0.7,0.9-1.3,1.2c-0.6,0.3-1.2,0.4-2,0.4h-3.2v-1.7H31c0.5,0,0.9-0.1,1.2-0.4c0.3-0.3,0.4-0.7,0.4-1.1s-0.1-0.8-0.4-1.1
		c-0.3-0.3-0.7-0.4-1.2-0.4h-2.6V16H26.1z"/>
	<path d="M35.9,7.5V5.2h2.3v2.4H35.9z M35.9,16V8.5h2.2V16H35.9z"/>
	<path d="M43.6,13l-2.1,3h-2.4l3.5-4.5L43.6,13z M44.8,16l-2.2-3.3l-3.2-4.2h2.4l2,2.9l3.4,4.5H44.8z M42.8,11.3l2-2.8h2.4l-3.3,4.3
		L42.8,11.3z"/>
	<path d="M48.3,16V5.5h2.2V16H48.3z M49.7,16v-1.7h2.7c0.8,0,1.4-0.2,1.9-0.5c0.5-0.3,0.9-0.7,1.2-1.3c0.3-0.5,0.4-1.1,0.4-1.8
		c0-0.7-0.1-1.3-0.4-1.8c-0.3-0.5-0.7-0.9-1.2-1.2c-0.5-0.3-1.2-0.4-1.9-0.4h-2.6V5.5h2.6c1.2,0,2.2,0.2,3.1,0.6
		c0.9,0.4,1.6,1,2,1.8c0.5,0.8,0.7,1.7,0.7,2.8c0,1.1-0.2,2-0.7,2.8c-0.5,0.8-1.2,1.4-2,1.8c-0.9,0.4-1.9,0.6-3.1,0.6H49.7z"/>
	<path d="M62.9,16.1c-0.8,0-1.5-0.2-2.2-0.5c-0.6-0.3-1.1-0.8-1.4-1.4c-0.3-0.6-0.5-1.3-0.5-2c0-0.8,0.2-1.4,0.5-2
		c0.3-0.6,0.8-1,1.4-1.4c0.6-0.3,1.3-0.5,2.1-0.5c0.8,0,1.4,0.2,2,0.5c0.6,0.3,1,0.7,1.3,1.3c0.3,0.6,0.5,1.2,0.5,2
		c0,0.2,0,0.3,0,0.4c0,0.1,0,0.3,0,0.4h-6.4v-1.4h4.7l-0.4,0.3c0-0.6-0.1-1-0.4-1.3c-0.3-0.3-0.7-0.4-1.2-0.4c-0.6,0-1,0.2-1.3,0.6
		c-0.3,0.4-0.5,1-0.5,1.7c0,0.8,0.2,1.3,0.5,1.7c0.3,0.4,0.8,0.6,1.4,0.6c0.3,0,0.7-0.1,0.9-0.2c0.3-0.1,0.4-0.3,0.6-0.6h2.1
		c-0.2,0.7-0.7,1.3-1.2,1.7C64.6,15.9,63.8,16.1,62.9,16.1z"/>
	<path d="M67.8,16V5.5H70V16H67.8z"/>
	<path d="M71.6,7.5V5.2H74v2.4H71.6z M71.7,16V8.5h2.2V16H71.7z"/>
	<path d="M77.6,16l-2.9-7.4H77l2.3,6.9H78l2.3-6.9h2.3L79.7,16H77.6z"/>
	<path d="M86.8,16.1c-0.8,0-1.5-0.2-2.2-0.5c-0.6-0.3-1.1-0.8-1.4-1.4c-0.3-0.6-0.5-1.3-0.5-2c0-0.8,0.2-1.4,0.5-2
		c0.3-0.6,0.8-1,1.4-1.4c0.6-0.3,1.3-0.5,2.1-0.5c0.8,0,1.4,0.2,2,0.5c0.6,0.3,1,0.7,1.3,1.3c0.3,0.6,0.5,1.2,0.5,2
		c0,0.2,0,0.3,0,0.4c0,0.1,0,0.3,0,0.4H84v-1.4h4.7l-0.4,0.3c0-0.6-0.1-1-0.4-1.3c-0.3-0.3-0.7-0.4-1.2-0.4c-0.6,0-1,0.2-1.3,0.6
		c-0.3,0.4-0.5,1-0.5,1.7c0,0.8,0.2,1.3,0.5,1.7c0.3,0.4,0.8,0.6,1.4,0.6c0.3,0,0.7-0.1,0.9-0.2c0.3-0.1,0.4-0.3,0.6-0.6h2.1
		c-0.2,0.7-0.7,1.3-1.2,1.7C88.4,15.9,87.7,16.1,86.8,16.1z"/>
	<path d="M91.6,16V8.5h2.1v1.7h0V16H91.6z M93.8,12.1l-0.2-1.8c0.2-0.6,0.5-1.1,0.9-1.4c0.4-0.3,0.9-0.5,1.5-0.5
		c0.2,0,0.3,0,0.4,0.1v2c0,0-0.1,0-0.2,0c-0.1,0-0.2,0-0.3,0c-0.7,0-1.2,0.1-1.5,0.4C94,11.1,93.8,11.5,93.8,12.1z"/>
</g>
</svg>
